HIERARCHY
ROOT Joint0
{
  OFFSET 0.0000 0.0000 1.0000
  CHANNELS 6 Xposition Yposition Zposition Zrotation Xrotation Yrotation
  JOINT Joint1
  {
    OFFSET 0.0811 -0.0899 -0.0114
    CHANNELS 3 Zrotation Xrotation Yrotation
    JOINT Joint4
    {
      OFFSET 0.0297 -0.3677 -0.0039
      CHANNELS 3 Zrotation Xrotation Yrotation
      JOINT Joint7
      {
        OFFSET -0.0120 -0.3841 -0.0490
        CHANNELS 3 Zrotation Xrotation Yrotation
        JOINT Joint10
        {
          OFFSET 0.0247 -0.0555 0.1226
          CHANNELS 3 Zrotation Xrotation Yrotation
          End Site
          {
            OFFSET 0.0247 -0.0555 0.1226
          }
        }
      }
    }
  }
  JOINT Joint2
  {
    OFFSET -0.0773 -0.0878 -0.0084
    CHANNELS 3 Zrotation Xrotation Yrotation
    JOINT Joint5
    {
      OFFSET -0.0344 -0.3716 -0.0062
      CHANNELS 3 Zrotation Xrotation Yrotation
      JOINT Joint8
      {
        OFFSET 0.0139 -0.3835 -0.0484
        CHANNELS 3 Zrotation Xrotation Yrotation
        JOINT Joint11
        {
          OFFSET -0.0293 -0.0469 0.1263
          CHANNELS 3 Zrotation Xrotation Yrotation
          End Site
          {
            OFFSET -0.0293 -0.0469 0.1263
          }
        }
      }
    }
  }
  JOINT Joint3
  {
    OFFSET -0.0027 0.1037 -0.0232
    CHANNELS 3 Zrotation Xrotation Yrotation
    JOINT Joint6
    {
      OFFSET 0.0030 0.1296 -0.0027
      CHANNELS 3 Zrotation Xrotation Yrotation
      JOINT Joint9
      {
        OFFSET 0.0015 0.0533 0.0332
        CHANNELS 3 Zrotation Xrotation Yrotation
        JOINT Joint12
        {
          OFFSET -0.0004 0.2283 -0.0600
          CHANNELS 3 Zrotation Xrotation Yrotation
          JOINT Joint15
          {
            OFFSET 0.0048 0.0641 0.0558
            CHANNELS 3 Zrotation Xrotation Yrotation
            End Site
            {
              OFFSET 0.0048 0.0641 0.0558
            }
          }
        }
        JOINT Joint13
        {
          OFFSET 0.0787 0.1275 -0.0430
          CHANNELS 3 Zrotation Xrotation Yrotation
          JOINT Joint16
          {
            OFFSET 0.0914 0.0355 -0.0086
            CHANNELS 3 Zrotation Xrotation Yrotation
            JOINT Joint18
            {
              OFFSET 0.2512 -0.0141 -0.0294
              CHANNELS 3 Zrotation Xrotation Yrotation
              JOINT Joint20
              {
                OFFSET 0.2431 0.0092 0.0027
                CHANNELS 3 Zrotation Xrotation Yrotation
                JOINT Joint22
                {
                  OFFSET 0.1053 -0.0108 0.0234
                  CHANNELS 3 Zrotation Xrotation Yrotation
                  JOINT Joint23
                  {
                    OFFSET 0.0332 0.0042 0.0030
                    CHANNELS 3 Zrotation Xrotation Yrotation
                    JOINT Joint24
                    {
                      OFFSET 0.0234 -0.0009 0.0005
                      CHANNELS 3 Zrotation Xrotation Yrotation
                      End Site
                      {
                        OFFSET 0.0234 -0.0009 0.0005
                      }
                    }
                  }
                }
                JOINT Joint25
                {
                  OFFSET 0.1126 -0.0078 -0.0002
                  CHANNELS 3 Zrotation Xrotation Yrotation
                  JOINT Joint26
                  {
                    OFFSET 0.0317 0.0021 -0.0047
                    CHANNELS 3 Zrotation Xrotation Yrotation
                    JOINT Joint27
                    {
                      OFFSET 0.0246 -0.0008 -0.0039
                      CHANNELS 3 Zrotation Xrotation Yrotation
                      End Site
                      {
                        OFFSET 0.0246 -0.0008 -0.0039
                      }
                    }
                  }
                }
                JOINT Joint28
                {
                  OFFSET 0.0860 -0.0168 -0.0403
                  CHANNELS 3 Zrotation Xrotation Yrotation
                  JOINT Joint29
                  {
                    OFFSET 0.0158 -0.0006 -0.0114
                    CHANNELS 3 Zrotation Xrotation Yrotation
                    JOINT Joint30
                    {
                      OFFSET 0.0161 -0.0011 -0.0109
                      CHANNELS 3 Zrotation Xrotation Yrotation
                      End Site
                      {
                        OFFSET 0.0161 -0.0011 -0.0109
                      }
                    }
                  }
                }
                JOINT Joint31
                {
                  OFFSET 0.0999 -0.0111 -0.0238
                  CHANNELS 3 Zrotation Xrotation Yrotation
                  JOINT Joint32
                  {
                    OFFSET 0.0286 0.0023 -0.0053
                    CHANNELS 3 Zrotation Xrotation Yrotation
                    JOINT Joint33
                    {
                      OFFSET 0.0234 -0.0009 -0.0074
                      CHANNELS 3 Zrotation Xrotation Yrotation
                      End Site
                      {
                        OFFSET 0.0234 -0.0009 -0.0074
                      }
                    }
                  }
                }
                JOINT Joint34
                {
                  OFFSET 0.0426 -0.0219 0.0277
                  CHANNELS 3 Zrotation Xrotation Yrotation
                  JOINT Joint35
                  {
                    OFFSET 0.0185 0.0008 0.0246
                    CHANNELS 3 Zrotation Xrotation Yrotation
                    JOINT Joint36
                    {
                      OFFSET 0.0221 -0.0048 0.0152
                      CHANNELS 3 Zrotation Xrotation Yrotation
                      End Site
                      {
                        OFFSET 0.0221 -0.0048 0.0152
                      }
                    }
                  }
                }
              }
            }
          }
        }
        JOINT Joint14
        {
          OFFSET -0.0815 0.1251 -0.0492
          CHANNELS 3 Zrotation Xrotation Yrotation
          JOINT Joint17
          {
            OFFSET -0.0975 0.0385 -0.0099
            CHANNELS 3 Zrotation Xrotation Yrotation
            JOINT Joint19
            {
              OFFSET -0.2546 -0.0159 -0.0229
              CHANNELS 3 Zrotation Xrotation Yrotation
              JOINT Joint21
              {
                OFFSET -0.2519 0.0079 0.0007
                CHANNELS 3 Zrotation Xrotation Yrotation
                JOINT Joint37
                {
                  OFFSET -0.1043 -0.0103 0.0246
                  CHANNELS 3 Zrotation Xrotation Yrotation
                  JOINT Joint38
                  {
                    OFFSET -0.0341 0.0034 0.0025
                    CHANNELS 3 Zrotation Xrotation Yrotation
                    JOINT Joint39
                    {
                      OFFSET -0.0236 -0.0015 -0.0003
                      CHANNELS 3 Zrotation Xrotation Yrotation
                      End Site
                      {
                        OFFSET -0.0236 -0.0015 -0.0003
                      }
                    }
                  }
                }
                JOINT Joint40
                {
                  OFFSET -0.1123 -0.0074 -0.0003
                  CHANNELS 3 Zrotation Xrotation Yrotation
                  JOINT Joint41
                  {
                    OFFSET -0.0322 0.0016 -0.0048
                    CHANNELS 3 Zrotation Xrotation Yrotation
                    JOINT Joint42
                    {
                      OFFSET -0.0245 -0.0012 -0.0045
                      CHANNELS 3 Zrotation Xrotation Yrotation
                      End Site
                      {
                        OFFSET -0.0245 -0.0012 -0.0045
                      }
                    }
                  }
                }
                JOINT Joint43
                {
                  OFFSET -0.0863 -0.0161 -0.0419
                  CHANNELS 3 Zrotation Xrotation Yrotation
                  JOINT Joint44
                  {
                    OFFSET -0.0162 -0.0001 -0.0120
                    CHANNELS 3 Zrotation Xrotation Yrotation
                    JOINT Joint45
                    {
                      OFFSET -0.0165 -0.0007 -0.0110
                      CHANNELS 3 Zrotation Xrotation Yrotation
                      End Site
                      {
                        OFFSET -0.0165 -0.0007 -0.0110
                      }
                    }
                  }
                }
                JOINT Joint46
                {
                  OFFSET -0.0999 -0.0107 -0.0248
                  CHANNELS 3 Zrotation Xrotation Yrotation
                  JOINT Joint47
                  {
                    OFFSET -0.0290 0.0016 -0.0050
                    CHANNELS 3 Zrotation Xrotation Yrotation
                    JOINT Joint48
                    {
                      OFFSET -0.0236 -0.0012 -0.0076
                      CHANNELS 3 Zrotation Xrotation Yrotation
                      End Site
                      {
                        OFFSET -0.0236 -0.0012 -0.0076
                      }
                    }
                  }
                }
                JOINT Joint49
                {
                  OFFSET -0.0397 -0.0214 0.0306
                  CHANNELS 3 Zrotation Xrotation Yrotation
                  JOINT Joint50
                  {
                    OFFSET -0.0191 0.0007 0.0247
                    CHANNELS 3 Zrotation Xrotation Yrotation
                    JOINT Joint51
                    {
                      OFFSET -0.0231 -0.0056 0.0141
                      CHANNELS 3 Zrotation Xrotation Yrotation
                      End Site
                      {
                        OFFSET -0.0231 -0.0056 0.0141
                      }
                    }
                  }
                }
              }
            }
          }
        }
      }
    }
  }
}
MOTION
Frames: 7
Frame Time: 0.0333
0.0000 0.0000 0.0000 134.9851 78.5814 -31.8543 16.3128 -2.9500 -27.4409 9.5092 18.9646 -17.6691 -7.7099 -5.8663 -4.4912 -0.4035 0.0195 0.5025 -19.4854 -24.9495 1.0513 5.2958 15.8017 -18.0088 12.6799 -14.0095 34.9745 0.4398 -0.6989 -0.1004 -13.6523 6.1797 25.9559 21.6248 14.0620 2.4853 -14.8770 -14.5066 38.5156 -10.7655 0.8391 2.1720 4.5920 -6.6909 -27.7215 -25.4223 -7.5135 11.8340 -79.2393 10.7032 -75.7710 12.3244 1.6622 -4.3603 1.3356 -29.0086 9.0213 -23.3793 5.6817 3.5194 -43.0559 7.3600 -1.1329 -11.4151 -4.8439 -5.7891 -30.3182 -7.4232 0.8066 -40.5792 -8.5900 0.0018 -19.6941 -0.6055 -5.1527 -40.3377 -20.8584 -19.2230 -29.7890 -11.0490 -6.5526 -5.4751 -21.3578 -4.4712 -36.7714 -5.8465 -6.8038 -37.1104 -15.0250 -8.5378 -22.8803 -8.3365 -9.6052 -16.4245 46.6341 24.0578 3.8849 -28.2154 2.2938 -17.8697 30.3755 8.1245 13.8212 7.1991 51.4187 87.6791 5.6332 13.5114 -26.6656 -2.4868 30.8373 21.5515 -24.9635 4.3894 24.8357 5.2067 -4.1593 42.9128 7.5386 0.7062 10.8714 -5.3700 5.7505 30.2213 -6.9016 -0.7154 40.1762 -8.4102 0.2290 19.7773 -0.0492 5.5794 39.5192 -20.6120 19.4420 29.7022 -10.8377 6.7601 5.4730 -21.1390 4.4027 36.1194 -6.2613 7.3921 38.4600 -15.0138 8.5479 21.9118 -8.6772 8.8733 15.9244 46.9995 -23.7029 -4.2727 -28.7897 -2.2007 18.3865 29.0873 -7.8741
0.0000 0.0000 0.0000 134.7811 78.5056 -31.6642 16.4450 -3.1981 -27.3123 9.3955 19.0423 -17.7301 -7.8790 -5.8647 -4.2219 -0.3371 0.0384 0.4281 -19.9738 -25.1321 0.7882 5.3849 15.8016 -17.9746 12.4758 -13.8355 34.5393 0.4658 -0.6833 -0.1352 -13.6835 5.9585 26.2506 21.5772 14.1848 2.6681 -15.1122 -14.7022 38.9248 -10.6776 0.8475 2.2139 4.3797 -6.7963 -27.5943 -25.6678 -7.4648 11.6716 -79.1882 10.6584 -75.8396 12.2732 1.4994 -4.3268 1.3934 -29.0520 8.7911 -23.4495 5.5993 3.5717 -42.9584 7.3485 -1.1453 -11.4809 -4.8478 -5.7922 -30.3305 -7.4835 0.8634 -40.5748 -8.6462 0.0494 -19.6157 -0.5897 -5.1010 -40.3880 -20.8181 -19.2676 -29.7438 -11.0282 -6.6341 -5.4833 -21.3738 -4.6060 -36.6827 -5.8635 -6.7524 -37.1948 -15.0578 -8.6999 -22.7577 -8.2493 -9.6218 -16.3540 46.7343 24.0336 3.9426 -28.0699 2.2445 -18.0976 30.3367 8.2598 13.6894 7.0069 51.5186 87.5465 5.5619 13.5304 -26.6133 -2.5333 30.9136 21.4653 -24.8411 4.5154 24.8318 5.1855 -4.2155 42.9808 7.4773 0.6567 10.7886 -5.3357 5.6423 30.1330 -6.8678 -0.8096 40.1206 -8.4396 0.1872 19.7014 -0.1664 5.6001 39.5469 -20.6253 19.4877 29.6774 -10.8347 6.7120 5.4034 -21.0787 4.3034 36.0504 -6.2504 7.3764 38.3314 -14.9962 8.4661 21.7945 -8.7416 8.8647 15.7990 47.0099 -23.6677 -4.1847 -28.7635 -2.0426 18.4382 29.0279 -7.9660
0.0000 0.0000 0.0000 134.9109 78.4482 -31.7753 16.4550 -3.3890 -27.3689 9.5747 19.2307 -18.0738 -7.9291 -5.9691 -4.2072 -0.3651 -0.0203 0.3917 -20.2357 -25.3032 0.7938 5.5202 15.7799 -18.2252 12.4558 -13.9149 34.9338 0.4694 -0.6673 -0.1520 -13.8226 5.8233 26.9359 21.6933 14.3754 2.8208 -15.3538 -15.2684 39.6510 -10.8589 1.0676 2.2794 4.2850 -6.9487 -27.9286 -25.8130 -7.5440 11.6720 -78.9676 10.5851 -76.0168 12.3047 1.4808 -4.1717 1.4993 -29.0342 8.7728 -23.4389 5.5869 3.6296 -42.9174 7.3244 -1.1665 -11.4925 -4.8627 -5.7434 -30.2923 -7.5084 0.9270 -40.5540 -8.7029 0.0241 -19.5695 -0.5274 -5.0770 -40.4112 -20.8316 -19.2875 -29.8045 -11.0103 -6.7008 -5.4867 -21.2633 -4.6673 -36.6375 -5.8968 -6.6995 -37.3333 -15.0561 -8.7949 -22.6928 -8.2291 -9.6120 -16.3142 46.6773 24.0410 3.9053 -27.9056 2.1284 -18.1262 30.2971 8.3194 13.4619 6.9301 51.7474 87.6161 5.6121 13.7866 -26.8442 -2.3979 31.0129 21.6073 -24.8739 4.6356 24.7851 5.1734 -4.2568 43.0611 7.4910 0.6846 10.7499 -5.3033 5.5942 30.2366 -6.7987 -0.9002 40.0657 -8.4421 0.2046 19.7377 -0.2141 5.6284 39.5632 -20.6610 19.5284 29.6822 -10.8517 6.6731 5.4112 -21.0455 4.3611 36.0778 -6.1779 7.4105 38.3023 -14.9903 8.4804 21.7504 -8.7505 8.9076 15.7703 46.9424 -23.6466 -4.0670 -28.7637 -1.9756 18.5231 28.9663 -8.0924
0.0000 0.0000 0.0000 135.0345 78.4005 -31.8152 16.3536 -3.5335 -27.5387 9.8495 19.3089 -18.4389 -7.9210 -6.1442 -4.3026 -0.4442 -0.0955 0.3872 -20.5033 -25.4691 0.8646 5.6143 15.6868 -18.5694 12.5096 -14.0980 35.4950 0.4160 -0.6497 -0.1184 -13.9457 5.9907 27.9165 21.9092 14.5801 2.9311 -15.5288 -15.8937 40.4077 -11.2491 1.2981 2.3584 4.2505 -7.2180 -28.5444 -25.8646 -7.7259 11.8077 -78.6825 10.5624 -76.3014 12.4150 1.4577 -3.9927 1.6750 -28.9626 8.8280 -23.3896 5.6515 3.6597 -42.8978 7.3073 -1.1853 -11.4349 -4.8872 -5.6870 -30.2466 -7.4744 0.9743 -40.5197 -8.7420 -0.0070 -19.5943 -0.4790 -5.0478 -40.3917 -20.8444 -19.2642 -29.8835 -11.0390 -6.7195 -5.4697 -21.1179 -4.6564 -36.6276 -5.9484 -6.6610 -37.4113 -15.0489 -8.8336 -22.7158 -8.2753 -9.6059 -16.3057 46.5681 24.0503 3.8459 -27.8200 2.0577 -18.0196 30.3366 8.3310 13.3365 7.0205 51.9666 87.7220 5.7664 14.0879 -27.2790 -2.1804 31.1343 21.7834 -25.0255 4.6748 24.6979 5.1913 -4.2635 43.1599 7.5134 0.7524 10.7572 -5.3126 5.6080 30.4052 -6.7833 -0.9184 39.9748 -8.4326 0.2022 19.7937 -0.1867 5.6483 39.5880 -20.6519 19.5605 29.6965 -10.8366 6.6818 5.4231 -21.0406 4.4651 36.1414 -6.1559 7.4123 38.3424 -15.0011 8.5666 21.7545 -8.7578 8.9581 15.8328 46.8735 -23.7130 -4.0104 -28.7593 -1.9793 18.5911 28.9586 -8.1355
0.0000 0.0000 0.0000 134.9547 78.3380 -31.6204 16.2753 -3.6699 -27.6371 10.0314 19.3182 -18.6327 -7.8993 -6.3658 -4.3496 -0.4901 -0.1408 0.3853 -20.9342 -25.6057 0.8319 5.5912 15.5637 -18.7836 12.5093 -14.2586 35.7286 0.3570 -0.6389 -0.1231 -13.9485 6.1784 28.8489 22.1047 14.7523 3.0662 -15.6393 -16.3558 40.9371 -11.5946 1.4025 2.3935 4.2132 -7.5805 -28.9923 -25.9128 -7.8740 11.9043 -78.5622 10.4976 -76.4786 12.5797 1.3394 -3.8787 1.8216 -28.8616 8.6982 -23.3839 5.6884 3.6290 -42.9085 7.3310 -1.2065 -11.4288 -4.9101 -5.6672 -30.2413 -7.4310 0.9883 -40.4912 -8.7804 -0.0372 -19.5885 -0.5192 -5.0345 -40.3732 -20.8576 -19.2003 -29.8934 -11.0731 -6.6979 -5.4423 -21.0259 -4.6371 -36.6134 -5.9968 -6.6459 -37.4177 -15.0170 -8.8640 -22.8354 -8.3377 -9.6186 -16.3788 46.5593 24.1469 3.8243 -27.8939 2.1052 -17.8908 30.4395 8.3275 13.3044 7.0066 52.0498 87.6972 5.9345 14.2810 -27.6570 -1.9926 31.3375 21.8014 -25.1315 4.6383 24.6095 5.1719 -4.2806 43.2034 7.4935 0.8006 10.7750 -5.3149 5.6069 30.4883 -6.8329 -0.9009 39.9113 -8.4690 0.1547 19.8201 -0.1622 5.6558 39.6132 -20.6369 19.6309 29.7000 -10.7997 6.6778 5.3871 -21.0482 4.5064 36.1786 -6.2352 7.3756 38.3570 -15.0293 8.6185 21.7906 -8.7481 8.9684 15.9478 46.8240 -23.8709 -4.0055 -28.7363 -2.0088 18.5702 29.0144 -8.1286
0.0000 0.0000 0.0000 134.7673 78.2568 -31.2904 16.3174 -3.7607 -27.6045 10.0627 19.3006 -18.6696 -7.9126 -6.4849 -4.2727 -0.4940 -0.1333 0.4071 -21.6288 -25.7000 0.6570 5.5433 15.4950 -18.9327 12.4314 -14.3321 35.5113 0.3222 -0.6454 -0.1405 -13.8078 6.2655 29.5011 22.2823 14.9495 3.2287 -15.7372 -16.6493 41.2893 -11.8187 1.3801 2.3776 4.1609 -7.9725 -29.1527 -26.0016 -7.9431 11.8894 -78.7352 10.3966 -76.3957 12.7224 1.0356 -3.8935 1.8974 -28.7582 8.2409 -23.4270 5.7124 3.5866 -42.9272 7.3766 -1.2429 -11.4316 -4.9239 -5.6743 -30.2684 -7.3920 0.9972 -40.4669 -8.8231 -0.0518 -19.5439 -0.5268 -5.0658 -40.3659 -20.8422 -19.1517 -29.8435 -11.0806 -6.6578 -5.4373 -21.0204 -4.5880 -36.6011 -6.0345 -6.6442 -37.4066 -15.0105 -8.8954 -22.8741 -8.3857 -9.5975 -16.4777 46.6293 24.2605 3.8261 -27.9783 2.1777 -17.8418 30.5622 8.3359 13.3384 6.8617 52.0144 87.6000 6.0335 14.3741 -27.8381 -1.9057 31.5493 21.6655 -25.1117 4.5860 24.5688 5.1535 -4.2933 43.1832 7.4502 0.7968 10.7360 -5.3391 5.6045 30.4554 -6.8791 -0.8870 39.9568 -8.5069 0.1517 19.8307 -0.1471 5.6467 39.6609 -20.6417 19.7240 29.6842 -10.7474 6.6691 5.3550 -21.0388 4.4768 36.1528 -6.4014 7.3187 38.3389 -15.0367 8.5997 21.8150 -8.7493 8.9553 16.0106 46.7840 -23.9764 -4.0471 -28.6897 -2.0361 18.5053 29.1152 -8.1266
0.0000 0.0000 0.0000 134.7291 78.1652 -31.1498 16.4537 -3.8189 -27.5544 9.9657 19.2412 -18.6048 -7.9595 -6.5595 -4.1075 -0.4797 -0.1185 0.4298 -22.4236 -25.7445 0.4141 5.5360 15.4511 -19.1217 12.3243 -14.3818 35.0482 0.3246 -0.6371 -0.1703 -13.5901 6.3025 29.8145 22.5098 15.2362 3.3820 -15.8784 -16.9284 41.6010 -11.9323 1.3149 2.3654 4.0793 -8.3307 -29.1807 -26.1303 -7.9922 11.8389 -79.1711 10.2771 -76.1538 12.8288 0.5603 -4.0654 1.9094 -28.6861 7.6581 -23.4677 5.7244 3.5551 -42.9388 7.4207 -1.2604 -11.4132 -4.9260 -5.6758 -30.2956 -7.3721 1.0261 -40.4941 -8.8639 -0.0582 -19.4845 -0.4725 -5.0892 -40.3895 -20.8322 -19.1194 -29.7960 -11.0866 -6.6479 -5.4340 -21.0424 -4.5469 -36.6110 -6.0378 -6.6758 -37.3849 -15.0093 -8.9230 -22.8559 -8.3931 -9.6013 -16.5292 46.7167 24.3167 3.8657 -28.0097 2.1969 -17.9268 30.6688 8.3692 13.3881 6.6832 51.9355 87.6279 6.0324 14.4429 -27.9492 -1.8778 31.6605 21.4642 -25.0297 4.5372 24.6161 5.1376 -4.2880 43.1646 7.4188 0.7559 10.6883 -5.3269 5.5772 30.3737 -6.8871 -0.8672 40.0401 -8.5148 0.1541 19.8483 -0.1445 5.6315 39.6920 -20.6803 19.7787 29.6957 -10.7292 6.6992 5.3302 -21.0370 4.3917 36.1293 -6.4470 7.3360 38.2643 -15.0198 8.5546 21.8619 -8.8119 8.9231 15.9765 46.7275 -23.9740 -4.0926 -28.6449 -2.0557 18.4164 29.1723 -8.1031
